{"title":"Jab We Met 2007","uid":7829342,"size":2361472478,"categoryP":"video","categoryS":"hd___movies","magnet":"?xt=urn:btih:9fb09c3ad626ffc6750b723bff74524d6c388902&amp;dn=Jab+We+Met+2007&amp;tr=udp%3A%2F%2Ftracker.openbittorrent.com%3A80&amp;tr=udp%3A%2F%2Fopen.demonii.com%3A1337&amp;tr=udp%3A%2F%2Ftracker.coppersurfer.tk%3A6969&amp;tr=udp%3A%2F%2Fexodus.desync.com%3A6969","seeders":0,"leechers":0,"uploader":"kabir7","files":2,"time":1353014324,"description":"General\nComplete name                  :Jab We Met 2007\nFormat                         : MPEG-4\nFormat profile                 : Base Media\nCodec ID                       : isom\nFile size                      : 2.20 GiB\nDuration                       : 2h 23mn\nOverall bit rate mode          : Variable\nOverall bit rate               : 2 192 Kbps\nEncoded date                   : UTC 2010-07-23 15:07:26\nTagged date                    : UTC 2010-07-23 15:07:26\n\nVideo\nID                             : 1\nFormat                         : AVC\nFormat/Info                    : Advanced Video Codec\nFormat profile                 : &lt;a class=&quot;__cf_email__&quot; href=&quot;/cdn-cgi/l/email-protection&quot; data-cfemail=&quot;622a0b050a222e564c53&quot;&gt;[email&amp;#160;protected]&lt;/a&gt;&lt;script cf-hash='f9e31' type=&quot;text/javascript&quot;&gt;\n/* &lt;![CDATA[ */!function(){try{var t=&quot;currentScript&quot;in document?document.currentScript:function(){for(var t=document.getElementsByTagName(&quot;script&quot;),e=t.length;e--;)if(t[e].getAttribute(&quot;cf-hash&quot;))return t[e]}();if(t&amp;&amp;t.previousSibling){var e,r,n,i,c=t.previousSibling,a=c.getAttribute(&quot;data-cfemail&quot;);if(a){for(e=&quot;&quot;,r=parseInt(a.substr(0,2),16),n=2;a.length-n;n+=2)i=parseInt(a.substr(n,2),16)^r,e+=String.fromCharCode(i);e=document.createTextNode(e),c.parentNode.replaceChild(e,c)}}}catch(u){}}();/* ]]&gt; */&lt;/script&gt;\nFormat settings, CABAC         : Yes\nFormat settings, ReFrames      : 3 frames\nCodec ID                       : avc1\nCodec ID/Info                  : Advanced Video Coding\nDuration                       : 2h 23mn\nSource duration                : 28s 52ms\nBit rate mode                  : Variable\nBit rate                       : 1 868 Kbps\nMaximum bit rate               : 40.0 Mbps\nWidth                          : 1 280 pixels\nHeight                         : 528 pixels\nDisplay aspect ratio           : 2.40:1\nFrame rate mode                : Constant\nFrame rate                     : 24.000 fps\nColor space                    : YUV\nChroma subsampling             : 4:2:0\nBit depth                      : 8 bits\nScan type                      : Progressive\nBits/(Pixel*Frame)             : 0.115\nStream size                    : 1.87 GiB (85%)\nSource stream size             : 1.87 GiB\n\n\n\nAudio\nID                             : 2\nFormat                         : AAC\nFormat/Info                    : Advanced Audio Codec\nFormat profile                 : LC\nCodec ID                       : 40\nDuration                       : 2h 23mn\nBit rate mode                  : Variable\nBit rate                       : 320 Kbps\nMaximum bit rate               : 333 Kbps\nChannel(s)                     : 6 channels\nChannel positions              : Front: L C R, Side: L R, LFE\nSampling rate                  : 48.0 KHz\nCompression mode               : Lossy\nStream size                    : 328 MiB (15%)\nTitle                          : Jab We Met BDRip xRG\nLanguage                       : Hindi\n\n\nSnaps\n &lt;a href=&quot;\nhttp://postimage.org/image/bu78x0wjv/&quot; rel=&quot;nofollow&quot; target=&quot;_NEW&quot;&gt;\nhttp://postimage.org/image/bu78x0wjv/&lt;/a&gt; &lt;a href=&quot;\nhttp://postimage.org/image/x54t1aeob/&quot; rel=&quot;nofollow&quot; target=&quot;_NEW&quot;&gt;\nhttp://postimage.org/image/x54t1aeob/&lt;/a&gt; &lt;a href=&quot;\nhttp://postimage.org/image/wgvyicfyj/&quot; rel=&quot;nofollow&quot; target=&quot;_NEW&quot;&gt;\nhttp://postimage.org/image/wgvyicfyj/&lt;/a&gt; &lt;a href=&quot;\nhttp://postimage.org/image/y9yv6o157/&quot; rel=&quot;nofollow&quot; target=&quot;_NEW&quot;&gt;\nhttp://postimage.org/image/y9yv6o157/&lt;/a&gt; &lt;a href=&quot;\nhttp://postimage.org/image/nbnlohcjv/&quot; rel=&quot;nofollow&quot; target=&quot;_NEW&quot;&gt;\nhttp://postimage.org/image/nbnlohcjv/&lt;/a&gt; &lt;a href=&quot;\nhttp://postimage.org/image/qjs31iytn/&quot; rel=&quot;nofollow&quot; target=&quot;_NEW&quot;&gt;\nhttp://postimage.org/image/qjs31iytn/&lt;/a&gt; &lt;a href=&quot;\nhttp://postimage.org/image/60x6wgkwb/&quot; rel=&quot;nofollow&quot; target=&quot;_NEW&quot;&gt;\nhttp://postimage.org/image/60x6wgkwb/&lt;/a&gt; &lt;a href=&quot;\nhttp://postimage.org/image/vwlzcrt1n/&quot; rel=&quot;nofollow&quot; target=&quot;_NEW&quot;&gt;\nhttp://postimage.org/image/vwlzcrt1n/&lt;/a&gt; &lt;a href=&quot;\nhttp://postimage.org/image/7u55hwcej/&quot; rel=&quot;nofollow&quot; target=&quot;_NEW&quot;&gt;\nhttp://postimage.org/image/7u55hwcej/&lt;/a&gt;\n\n\n\n\nSeeding time 2am to 8am IST","torrent":{"xt":"urn:btih:9fb09c3ad626ffc6750b723bff74524d6c388902","amp;dn":"Jab+We+Met+2007","amp;tr":["udp%3A%2F%2Ftracker.openbittorrent.com%3A80","udp%3A%2F%2Fopen.demonii.com%3A1337","udp%3A%2F%2Ftracker.coppersurfer.tk%3A6969","udp%3A%2F%2Fexodus.desync.com%3A6969"],"infoHash":"9fb09c3ad626ffc6750b723bff74524d6c388902","infoHashBuffer":{"type":"Buffer","data":[159,176,156,58,214,38,255,198,117,11,114,59,255,116,82,77,108,56,137,2]},"announce":[],"urlList":[]}}